<?xml version="1.0" standalone="no"?>
<!DOCTYPE svg PUBLIC "-//W3C//DTD SVG 20010904//EN"
 "http://www.w3.org/TR/2001/REC-SVG-20010904/DTD/svg10.dtd">
<svg version="1.0" xmlns="http://www.w3.org/2000/svg"
 width="536.000000pt" height="696.000000pt" viewBox="0 0 536.000000 696.000000"
 preserveAspectRatio="xMidYMid meet">
<metadata>
Created by potrace 1.16, written by Peter Selinger 2001-2019
</metadata>
<g transform="translate(0.000000,696.000000) scale(0.100000,-0.100000)"
fill="#000000" stroke="none">
<path d="M2414 6747 c-3 -8 0 -26 6 -42 6 -16 14 -127 17 -246 l6 -217 -24 -5
c-19 -4 32 -2 73 2 4 1 8 110 10 244 2 133 7 250 12 260 7 14 3 17 -17 17 -22
0 -26 -5 -30 -37 l-4 -38 -1 38 c-2 30 -6 37 -22 37 -11 0 -23 -6 -26 -13z"/>
<path d="M3265 6710 c4 -30 2 -72 -5 -103 -11 -46 -83 -325 -96 -369 -4 -14 1
-18 25 -18 20 0 31 6 35 18 26 86 65 274 60 289 -4 12 -3 14 3 6 6 -8 15 8 27
50 9 34 28 83 42 109 13 25 21 49 17 51 -5 3 -32 8 -61 11 l-54 6 7 -50z"/>
<path d="M1578 6663 c-33 -5 -34 -12 -7 -65 20 -40 121 -340 134 -400 4 -17 3
-33 -3 -37 -5 -3 -6 -15 -1 -26 7 -18 8 -18 8 -1 1 12 6 16 16 12 8 -3 15 -2
15 3 0 4 8 12 19 17 22 11 22 9 -58 262 -43 132 -51 170 -46 202 7 39 6 40
-22 39 -15 -1 -40 -4 -55 -6z"/>
<path d="M4104 6553 c-4 -32 -8 -62 -9 -68 -1 -5 -3 -16 -3 -23 -1 -7 -7 -10
-14 -6 -7 4 -8 3 -4 -4 4 -6 -10 -38 -31 -69 -21 -32 -41 -66 -45 -76 -5 -11
-13 -15 -20 -11 -7 4 -10 4 -6 -1 9 -9 -29 -85 -42 -85 -6 0 -10 -9 -10 -19 0
-11 -5 -23 -12 -27 -7 -5 -9 -2 -4 7 10 19 -23 -22 -35 -43 -8 -15 -5 -18 21
-18 16 0 31 6 32 13 0 6 2 19 2 27 1 8 8 14 15 12 7 -1 11 3 8 10 -6 18 34 89
46 81 6 -3 7 -1 3 5 -9 14 33 84 47 75 6 -3 7 -1 3 6 -9 13 48 104 58 93 4 -3
4 2 0 12 -5 13 -4 17 4 12 7 -4 10 -2 6 7 -3 8 2 20 11 27 8 7 15 9 15 4 0 -9
45 49 62 80 9 17 7 18 -21 14 -21 -3 -31 0 -31 9 0 7 -8 13 -19 13 -15 0 -20
-11 -27 -57z"/>
<path d="M792 6449 l-43 -19 23 -31 c13 -17 80 -115 150 -217 85 -126 123
-189 115 -194 -6 -4 1 -6 16 -4 15 1 30 6 35 11 4 4 1 5 -7 0 -9 -5 -12 -4 -7
3 4 7 14 12 21 12 9 0 -12 39 -53 98 -117 168 -180 275 -187 320 -4 23 -10 42
-13 41 -4 0 -26 -9 -50 -20z"/>
<path d="M2300 6180 c-228 -19 -578 -63 -680 -86 -36 -8 -97 -21 -135 -29 -39
-7 -142 -33 -230 -58 -88 -25 -176 -48 -195 -52 -19 -4 -48 -13 -65 -20 -16
-7 -52 -21 -80 -31 -27 -9 -54 -21 -60 -24 -5 -4 -23 -10 -40 -14 -16 -4 -63
-23 -103 -42 -40 -19 -77 -34 -81 -34 -33 0 -405 -206 -458 -252 -17 -16 -25
-18 -42 -9 -17 10 -20 9 -15 -4 3 -8 11 -12 18 -9 6 3 2 -1 -9 -10 -11 -8 -28
-23 -37 -32 -10 -10 -21 -14 -25 -11 -3 4 -1 7 6 7 7 0 10 4 6 9 -3 5 2 17 11
26 9 9 15 17 13 19 -2 1 -25 17 -51 35 -41 27 -48 29 -48 14 0 -10 14 -31 32
-46 l33 -28 -23 -16 c-26 -18 -29 -35 -4 -26 12 4 9 -3 -10 -24 -27 -28 -37
-63 -20 -63 5 0 19 10 32 23 43 39 190 148 235 173 27 15 80 45 140 81 28 16
70 38 95 50 25 11 89 42 144 67 54 25 110 49 125 52 14 4 37 13 51 20 14 7 84
32 155 55 72 22 148 47 170 55 120 41 315 86 545 125 338 58 427 68 723 81
354 16 806 -6 1102 -52 191 -30 524 -108 680 -159 185 -60 492 -192 599 -257
238 -144 377 -261 510 -427 53 -66 62 -63 14 4 -52 70 -78 100 -152 173 -214
209 -529 385 -926 517 -480 159 -930 228 -1530 234 -173 2 -362 -1 -420 -5z"/>
<path d="M138 6161 l-28 -18 126 -124 c217 -213 243 -241 237 -255 -3 -10 3
-14 18 -14 19 0 21 2 9 10 -12 7 -11 10 7 17 20 7 8 23 -136 169 -110 112
-162 172 -170 197 -14 41 -23 44 -63 18z"/>
<path d="M2355 6033 c-148 -7 -415 -35 -560 -59 -49 -8 -130 -22 -180 -30
-190 -31 -635 -153 -795 -217 -203 -82 -252 -104 -370 -165 -171 -89 -434
-264 -447 -298 -12 -33 9 -22 106 54 103 80 335 219 446 267 33 15 72 33 87
41 93 50 422 160 668 222 420 107 795 156 1285 169 250 6 380 0 690 -33 554
-58 985 -174 1410 -379 244 -118 491 -308 606 -465 24 -33 47 -60 52 -60 4 0
-13 28 -39 63 -185 241 -454 426 -864 592 -487 197 -1146 308 -1793 303 -133
-1 -269 -3 -302 -5z"/>
<path d="M5082 5903 c-187 -96 -260 -139 -253 -146 8 -8 21 -6 46 6 19 9 43
14 52 11 13 -4 15 -3 5 4 -10 7 -4 13 25 26 21 9 46 21 55 26 10 6 25 10 33
10 9 0 13 5 10 10 -6 9 16 15 39 11 5 -1 12 2 15 7 3 5 26 21 51 36 l45 27
-45 -41 c-25 -22 -40 -40 -34 -40 5 0 16 6 23 13 11 10 12 8 3 -9 -6 -11 -29
-33 -52 -49 -22 -15 -38 -30 -35 -33 3 -3 15 4 28 16 13 12 27 22 32 22 4 0
23 12 42 26 18 14 32 19 31 12 -2 -7 -23 -25 -48 -39 -25 -15 -55 -37 -67 -50
l-22 -24 25 0 c13 0 24 4 24 8 0 5 3 6 8 4 4 -2 21 2 37 10 21 10 23 13 7 9
-13 -2 -20 0 -16 6 4 5 17 8 30 5 13 -2 21 0 18 5 -3 5 3 12 15 15 11 3 18 10
14 16 -4 6 0 8 10 4 10 -3 17 -2 17 2 0 5 7 12 16 15 14 5 15 4 4 -9 -15 -18
0 -20 19 -2 11 10 13 9 9 -3 -2 -8 -68 -46 -146 -85 -77 -38 -144 -73 -147
-76 -3 -4 7 -14 22 -24 15 -10 23 -12 16 -5 -10 11 -2 18 40 38 29 13 60 28
70 34 11 5 21 7 24 4 3 -3 14 3 24 13 24 22 92 43 113 35 9 -3 16 -14 17 -23
0 -10 2 -12 6 -3 3 7 0 19 -7 27 -9 11 -9 18 3 29 8 8 17 12 21 9 3 -4 6 26 6
65 l0 72 -27 -1 c-16 0 -22 -3 -15 -6 6 -2 12 -9 12 -15 0 -6 -6 -5 -16 2 -12
11 -18 10 -32 -4 -16 -17 -16 -18 8 -12 24 7 24 6 6 -8 -12 -10 -22 -12 -26
-6 -4 6 -15 2 -28 -10 -19 -18 -41 -12 -28 8 5 8 102 58 129 66 13 4 17 16 17
51 0 25 -3 45 -7 44 -5 0 -126 -61 -271 -136z"/>
<path d="M2245 5470 c-188 -13 -420 -39 -535 -60 -58 -11 -159 -29 -225 -40
-216 -38 -707 -170 -762 -206 -12 -8 -27 -14 -34 -14 -6 0 -25 -6 -42 -14 -18
-7 -72 -30 -120 -50 -167 -70 -371 -183 -494 -276 l-33 -24 0 -93 c0 -55 4
-93 10 -93 6 0 10 5 10 10 0 6 5 10 10 10 6 0 8 -11 4 -25 -4 -15 -2 -25 5
-25 13 0 14 39 2 60 -7 10 -2 19 20 32 35 21 46 23 30 5 -6 -8 -8 -16 -5 -20
3 -3 -5 -3 -18 -1 -19 5 -20 4 -7 -5 13 -9 15 -18 9 -45 -4 -19 -5 -37 -3 -40
3 -3 -11 -15 -31 -27 -30 -18 -36 -26 -36 -56 l0 -34 29 20 c16 12 36 21 44
21 9 0 18 6 20 13 3 6 6 -14 6 -46 1 -50 4 -58 18 -55 14 2 19 15 21 53 3 72
10 95 28 95 14 0 14 -3 4 -15 -11 -13 -10 -14 4 -9 11 4 24 -2 36 -16 11 -13
20 -19 20 -14 0 6 -5 15 -12 22 -9 9 -9 12 0 12 7 0 12 9 12 20 0 11 -5 20
-11 20 -8 0 -8 5 1 15 7 8 17 15 22 15 13 0 7 -113 -6 -122 -6 -5 -3 -8 9 -8
22 0 91 57 81 67 -3 4 -13 -2 -21 -13 -13 -17 -14 -13 -15 44 0 51 3 64 18 69
9 4 19 9 22 13 3 3 20 17 39 29 l33 24 -3 -82 c-3 -55 -1 -81 7 -81 6 0 44 13
83 30 140 57 545 173 724 206 45 8 96 19 114 25 17 6 53 12 80 15 26 2 73 9
103 14 65 12 338 47 465 61 129 13 125 11 125 75 0 30 4 53 9 50 5 -3 12 6 17
22 7 26 7 26 15 -13 4 -22 8 -57 8 -79 l1 -39 103 7 c56 3 140 7 187 7 47 1
92 5 100 8 19 8 24 31 8 31 -9 0 -8 3 2 10 15 9 16 13 19 50 0 11 6 20 11 20
6 0 10 -25 10 -55 l0 -55 168 0 c236 -1 420 -11 820 -47 34 -3 62 -2 62 3 0 5
18 10 40 10 44 2 46 -8 2 -14 -47 -6 -39 -14 11 -11 26 3 47 1 47 -3 0 -5 5
-8 11 -8 5 0 8 4 5 8 -3 4 -1 39 3 78 l8 69 2 -77 c0 -42 6 -80 11 -83 6 -3
33 -10 60 -14 l50 -8 0 69 c0 98 10 106 103 84 40 -9 80 -16 90 -16 14 0 17
-10 18 -62 2 -112 3 -118 11 -118 4 0 8 36 8 80 0 94 -3 93 127 59 l82 -22 4
-81 c3 -80 3 -80 3 12 -1 50 2 92 6 92 4 0 14 -7 22 -16 9 -8 21 -12 27 -8 8
5 9 3 4 -6 -5 -9 -2 -10 14 -5 11 3 48 -1 82 -10 34 -8 64 -13 66 -11 6 6
-123 46 -148 46 -10 0 -27 8 -37 18 -10 10 -60 30 -112 46 -52 15 -100 32
-105 37 -6 4 -58 21 -115 37 l-105 29 -5 57 -5 58 42 -7 c24 -3 67 -14 96 -24
51 -18 52 -19 59 -65 9 -64 18 -70 18 -13 0 25 3 48 8 51 4 2 48 -6 97 -19
l90 -23 6 -53 c6 -52 6 -53 7 -11 1 23 7 42 12 42 6 0 10 7 10 16 0 12 6 15
23 11 12 -3 50 -11 85 -18 l62 -12 1 -46 c2 -34 3 -38 6 -16 3 16 10 33 15 37
13 7 56 -10 78 -32 8 -8 41 -28 73 -45 l58 -30 -6 -75 c-4 -41 -11 -83 -17
-93 -5 -10 -8 -20 -6 -21 25 -21 140 -76 148 -71 5 3 10 1 10 -4 0 -6 6 -11
13 -11 7 0 28 -10 47 -23 65 -43 86 -48 105 -27 16 18 14 20 -42 50 -32 17
-92 51 -133 75 l-75 44 -12 63 c-16 86 -15 112 2 71 10 -22 30 -38 67 -56 52
-25 53 -25 56 -6 3 16 6 18 18 8 8 -6 14 -17 14 -24 0 -17 103 -61 108 -46 6
19 21 12 37 -20 11 -21 16 -52 14 -101 -2 -68 -1 -73 31 -110 35 -40 57 -45
52 -12 -2 15 -1 16 6 5 6 -7 9 -28 8 -46 -1 -18 2 -31 7 -28 11 6 48 -37 41
-48 -3 -5 -7 -9 -10 -9 -3 0 -3 4 0 9 7 11 -28 43 -37 34 -10 -9 -9 -133 1
-133 5 0 22 -13 38 -30 16 -16 32 -30 35 -30 4 0 9 57 10 127 3 89 8 128 17
131 6 2 12 18 12 35 0 23 3 28 9 18 7 -11 10 -7 13 15 4 34 -48 109 -129 185
-100 95 -313 231 -495 317 -166 78 -492 189 -648 221 -25 5 -99 21 -165 35
-366 80 -728 116 -1200 121 -192 2 -404 0 -470 -5z"/>
<path d="M2775 4859 c204 -3 424 -12 490 -18 162 -15 450 -49 505 -61 25 -5
56 -9 70 -9 42 1 -30 16 -185 38 -332 47 -563 61 -950 59 l-300 -2 370 -7z"/>
<path d="M2740 4540 l0 -120 24 0 c22 0 25 5 28 43 3 42 3 42 46 45 41 3 42 3
43 -30 1 -18 1 -38 0 -44 -2 -15 24 -25 44 -17 13 4 15 24 13 117 -3 106 -4
111 -25 114 -19 3 -22 -2 -25 -35 -3 -38 -3 -38 -50 -41 l-48 -3 0 45 c0 42
-2 46 -25 46 l-25 0 0 -120z"/>
<path d="M2333 4643 c-7 -2 -13 -13 -13 -23 0 -10 -9 -20 -20 -23 -11 -3 -20
-12 -20 -21 0 -8 9 -20 20 -26 15 -8 20 -21 20 -48 0 -54 24 -84 63 -80 41 4
49 34 13 48 -37 14 -37 66 0 80 18 7 24 15 20 26 -3 9 -6 18 -6 20 0 2 -9 4
-20 4 -15 0 -20 7 -20 25 0 24 -11 29 -37 18z"/>
<path d="M2078 4589 c-50 -19 -49 -78 2 -101 40 -17 38 -28 -5 -28 -28 0 -35
-4 -35 -19 0 -36 72 -43 114 -10 14 11 26 29 26 40 0 18 -8 28 -55 64 -19 15
-19 16 10 13 24 -2 31 1 33 18 4 31 -38 42 -90 23z"/>
<path d="M2430 4586 c0 -7 14 -43 30 -79 36 -81 37 -85 5 -97 -26 -10 -34 -44
-12 -53 17 -6 50 7 66 27 13 16 76 158 88 199 5 15 1 18 -18 15 -17 -2 -28
-16 -45 -58 l-22 -55 -15 36 c-8 20 -18 45 -21 57 -8 25 -56 32 -56 8z"/>
<path d="M3003 4566 c-23 -20 -28 -32 -28 -71 0 -37 5 -50 25 -65 57 -45 135
-30 160 29 38 93 -80 173 -157 107z"/>
<path d="M1758 4564 c-34 -18 -48 -43 -48 -84 0 -39 47 -90 84 -90 43 0 76 18
76 41 0 19 -4 21 -35 15 -20 -4 -41 -4 -48 1 -7 4 10 12 43 18 53 10 55 12 53
40 -3 35 -44 75 -76 75 -12 -1 -34 -7 -49 -16z"/>
<path d="M1183 4563 c-9 -3 -13 -29 -13 -79 0 -61 -4 -78 -20 -94 -39 -39 -50
-27 -50 58 0 88 -7 104 -38 95 -20 -5 -22 -11 -22 -88 0 -68 4 -87 21 -109 30
-38 90 -37 130 4 29 29 30 31 27 121 -3 89 -8 103 -35 92z"/>
<path d="M1651 4548 c-32 -84 -38 -94 -46 -73 -31 81 -33 84 -54 78 -26 -7
-26 -10 -1 -75 34 -89 42 -99 68 -96 20 2 30 17 58 87 18 46 31 88 28 92 -10
18 -45 9 -53 -13z"/>
<path d="M3204 4546 c-20 -32 -13 -52 26 -74 39 -22 38 -34 -2 -30 -27 2 -33
-1 -33 -17 0 -28 53 -42 91 -24 22 11 30 22 32 47 3 27 -2 35 -27 50 -38 21
-40 35 -5 26 23 -6 25 -4 22 17 -2 20 -9 24 -45 27 -36 3 -44 -1 -59 -22z"/>
<path d="M3690 4561 c-25 -10 -60 -44 -60 -59 0 -7 7 -15 15 -18 10 -4 15 -20
15 -49 0 -47 21 -79 57 -90 29 -8 54 31 26 42 -38 14 -46 65 -13 83 26 14 27
50 1 50 -13 0 -21 8 -23 24 -2 16 -8 21 -18 17z"/>
<path d="M3354 4547 c-2 -7 -3 -60 -2 -118 3 -99 4 -104 26 -107 12 -2 23 1
23 7 1 6 3 16 4 21 1 6 3 17 4 25 1 11 6 12 27 5 63 -24 121 72 84 140 -14 26
-67 43 -92 29 -14 -8 -23 -8 -31 0 -15 15 -37 14 -43 -2z"/>
<path d="M1335 4530 c-11 -5 -32 -9 -46 -9 -30 -1 -37 -25 -35 -116 1 -47 3
-50 29 -53 26 -3 27 -2 27 47 0 32 6 55 16 65 20 21 34 20 36 -1 4 -42 5 -59
7 -80 1 -17 7 -23 26 -23 24 0 25 2 25 69 0 63 -2 71 -26 90 -29 23 -30 23
-59 11z"/>
<path d="M3785 4490 c-10 -17 5 -30 34 -30 16 0 34 -7 41 -15 11 -13 8 -14
-19 -9 -35 7 -81 -17 -81 -42 0 -26 47 -64 77 -63 16 1 35 -1 44 -5 25 -11 33
10 30 78 -3 76 -19 96 -77 96 -24 0 -46 -4 -49 -10z"/>
<path d="M2708 4275 c-4 -4 -395 -16 -503 -15 -81 0 -72 -14 18 -28 54 -8 103
0 61 11 -10 2 4 5 31 5 37 0 45 -2 30 -8 -13 -6 0 -7 40 -5 l60 5 -50 -15
c-52 -15 -190 -15 -215 0 -7 4 -38 8 -69 8 -53 0 -54 0 -16 7 66 12 8 11 -117
-2 -95 -10 -118 -15 -117 -28 0 -10 2 -11 6 -2 5 13 72 16 136 6 51 -9 46 -19
-11 -20 -36 -1 -41 0 -22 6 19 6 11 8 -33 9 -33 1 -56 -3 -53 -8 8 -12 -61
-23 -113 -20 -22 2 -43 0 -47 -4 -4 -4 -19 -7 -33 -8 l-26 -1 25 -8 c21 -7 22
-8 5 -10 -57 -6 -195 0 -230 9 -22 5 -53 13 -69 17 l-29 7 37 -69 c20 -37 36
-74 36 -80 0 -7 5 -14 12 -16 8 -3 13 -61 17 -195 3 -105 9 -195 14 -199 4 -4
7 5 7 19 0 15 5 27 10 27 6 0 10 6 10 14 0 8 9 18 20 21 11 3 20 12 20 19 0 8
7 19 15 26 8 7 15 22 16 34 0 20 0 20 8 1 5 -11 11 -87 14 -168 5 -142 16
-209 18 -116 l2 44 6 -47 c4 -26 10 -50 14 -54 4 -4 64 -2 134 4 293 26 539
36 895 37 l378 0 0 131 0 132 43 -4 c23 -2 60 -5 82 -7 l40 -3 3 -112 c3 -87
0 -112 -10 -112 -9 0 -9 -3 2 -10 11 -7 4 -10 -27 -10 -44 0 -52 7 -31 28 9 9
9 12 1 12 -7 0 -15 -9 -18 -20 -5 -15 -12 -19 -26 -15 -10 4 -19 2 -19 -3 0
-8 158 -22 257 -22 l43 0 1 223 c1 122 4 212 6 199 2 -12 8 -20 12 -17 5 2 18
-6 31 -20 12 -13 28 -21 36 -18 10 4 14 -3 14 -23 0 -17 4 -24 9 -18 5 5 11
81 13 168 2 116 6 160 16 164 6 2 12 9 12 17 0 7 7 18 15 25 8 7 15 19 15 26
0 8 -7 14 -15 14 -8 0 -15 -4 -15 -10 0 -5 -5 -10 -11 -10 -5 0 -8 4 -5 9 4 5
-12 12 -35 16 -64 11 -40 16 35 7 37 -5 69 -5 71 -2 9 15 -281 37 -580 45
-104 3 -216 7 -247 9 -31 2 -58 2 -60 1z m-117 -526 c-13 -5 -38 -10 -55 -12
-32 -2 -47 -29 -25 -42 5 -3 6 1 3 9 -3 9 -1 16 5 16 10 0 15 -14 12 -32 0 -5
3 -8 9 -8 5 0 9 8 7 18 -1 9 3 18 8 20 6 1 10 -7 10 -17 0 -11 3 -23 8 -27 4
-4 7 -23 7 -42 0 -33 -1 -34 -30 -29 -28 6 -29 5 -20 -19 6 -14 10 -27 10 -29
0 -2 -14 10 -31 26 -17 16 -37 29 -45 29 -8 0 -13 3 -13 8 3 20 -2 32 -15 32
-8 0 -16 -10 -18 -22 -5 -39 -33 -28 -33 12 0 29 3 35 20 32 17 -2 18 -1 5 8
-12 10 -13 12 -1 17 11 4 11 7 0 13 -10 7 -10 11 0 24 15 18 43 23 136 24 53
1 64 -2 46 -9z"/>
<path d="M4154 3863 c3 -208 9 -494 12 -635 6 -234 5 -258 -10 -264 -9 -4 -19
-5 -21 -2 -2 2 -5 81 -5 176 -1 95 -5 172 -9 172 -4 0 -16 -6 -26 -14 -17 -12
-18 -28 -16 -204 2 -185 2 -190 -19 -205 -38 -27 -200 -179 -200 -188 0 -18
20 -8 72 39 86 77 138 114 138 100 1 -7 25 13 54 45 49 52 76 70 76 49 0 -4
-6 -14 -12 -20 -8 -8 -15 -50 -18 -100 -4 -74 -8 -87 -24 -90 -16 -4 -18 2
-13 58 l5 62 -29 -28 c-25 -24 -29 -35 -29 -82 l0 -54 -227 7 c-126 4 -239 8
-253 10 -14 1 -81 4 -150 5 -69 2 -109 5 -89 7 l36 4 7 61 c11 110 8 156 -11
161 -14 4 -13 5 4 6 12 0 25 -3 28 -9 7 -12 105 -14 105 -2 0 4 -20 6 -43 4
-31 -3 -49 1 -60 13 -13 12 -26 15 -48 10 -20 -5 -29 -4 -25 3 4 6 -2 8 -14 5
-11 -3 -20 -1 -20 5 0 7 41 9 118 7 105 -3 109 -3 42 5 -153 17 -966 23 -1306
10 -181 -7 -336 -17 -344 -22 -11 -7 -9 -8 10 -5 14 3 36 1 50 -3 22 -7 20 -8
-15 -9 -53 -2 -26 -21 29 -21 73 0 31 -8 -84 -15 -63 -4 -119 -7 -125 -6 -61
6 -60 7 -57 -19 3 -24 2 -24 -12 -5 -9 11 -16 16 -17 10 -3 -18 -5 -59 -7
-132 l-2 -73 -52 2 c-50 1 -50 2 -11 5 l42 4 5 52 c8 85 3 158 -11 152 -7 -2
-13 -1 -13 3 0 4 -26 8 -57 10 -32 1 -62 7 -67 12 -6 6 -21 10 -34 10 l-23 0
23 -32 c12 -18 33 -44 45 -58 15 -16 23 -37 23 -60 0 -19 4 -50 9 -67 5 -18 6
-35 2 -37 -4 -3 -82 -8 -173 -12 l-166 -7 -43 39 c-24 21 -54 49 -67 62 -13
12 -28 19 -34 16 -8 -5 -9 -1 -5 10 4 9 3 15 -2 11 -6 -3 -14 3 -20 12 -8 14
-11 15 -11 3 -2 -24 -18 21 -20 55 -2 18 -4 23 -7 13 -6 -22 -12 -22 -41 -2
-32 22 -40 9 -14 -19 12 -13 22 -27 22 -32 0 -4 -16 12 -35 36 l-35 44 0 617
c0 484 3 617 13 621 6 2 8 8 4 13 -5 5 -20 2 -35 -7 -22 -12 -28 -23 -30 -62
-2 -33 -7 -47 -18 -47 -20 0 -242 -64 -344 -98 -147 -51 -236 -87 -345 -142
l-70 -35 -3 -232 -2 -231 30 -14 c16 -7 30 -17 30 -22 0 -4 6 -6 14 -3 9 4 12
0 9 -13 -3 -10 0 -21 6 -24 6 -4 11 -1 11 6 0 9 3 9 8 2 4 -6 17 -16 29 -22
16 -9 23 -9 26 1 3 6 6 -2 6 -19 1 -42 7 -45 54 -28 134 48 549 146 562 133 2
-3 4 -99 4 -214 1 -212 -7 -308 -22 -271 -6 15 -10 16 -22 6 -20 -17 -32 -5
-15 15 11 13 10 14 -4 9 -9 -3 -16 -10 -16 -15 0 -5 -7 -9 -15 -9 -8 0 -50
-17 -93 -38 -310 -154 -369 -182 -382 -182 -17 0 79 49 98 50 6 0 12 5 12 10
0 6 6 10 13 10 6 0 52 23 102 50 49 28 100 53 113 57 14 3 21 11 18 19 -3 8 0
11 8 8 7 -3 26 0 42 7 16 6 25 13 19 15 -22 8 -396 -71 -560 -119 l-80 -23 -3
-137 c-2 -106 0 -137 10 -138 22 -2 32 -5 50 -13 9 -4 25 -3 37 3 25 14 41 14
21 0 -12 -8 -10 -9 10 -5 14 3 32 1 40 -4 13 -8 13 -11 1 -22 -9 -8 -11 -9 -7
-1 3 6 2 14 -4 18 -5 3 -10 2 -10 -4 0 -7 -8 -7 -26 -1 -19 8 -31 6 -46 -5
-20 -13 -19 -14 20 -9 22 2 43 0 47 -6 4 -6 -6 -10 -24 -10 -17 0 -31 -4 -31
-8 0 -9 70 -47 81 -44 11 2 21 -383 17 -668 l-3 -265 -92 1 c-83 1 -93 -1 -93
-16 0 -20 19 -30 55 -30 13 0 29 -8 34 -18 6 -9 11 -11 11 -4 0 6 5 12 11 12
15 0 3 -120 -14 -136 -4 -4 -7 -2 -7 4 0 7 -4 12 -10 12 -6 0 -8 -17 -5 -40 3
-24 1 -40 -5 -40 -6 0 -8 -11 -4 -27 6 -23 5 -25 -8 -13 -8 8 -15 19 -15 25 0
5 -1 21 -2 35 l-3 25 -8 -25 c-8 -24 -8 -24 -9 7 -2 51 -21 50 -21 -1 0 -25 4
-46 9 -46 5 0 9 -11 10 -25 1 -14 2 -33 3 -42 1 -10 -2 -34 -6 -53 -4 -19 -10
-50 -13 -67 l-5 -33 56 0 c51 0 56 2 62 24 3 14 4 29 1 33 -10 15 9 34 26 27
18 -7 23 -24 7 -24 -5 0 -6 -8 -3 -17 6 -14 9 -12 19 12 18 42 17 63 -3 61
-14 -1 -17 10 -17 74 0 106 19 170 56 184 20 7 31 20 35 38 3 16 10 25 18 22
9 -4 13 4 12 27 -1 18 4 34 11 36 19 7 16 -93 -3 -101 -23 -8 -18 -34 8 -38
16 -2 22 -9 21 -25 -1 -28 17 -30 39 -5 21 23 22 36 1 28 -12 -5 -14 -1 -9 15
5 14 2 25 -6 30 -8 5 -9 9 -3 9 6 0 17 -7 24 -15 16 -20 30 -19 30 1 0 12 7
15 29 12 17 -2 28 -2 26 1 -1 3 -6 30 -10 59 -6 49 -5 53 12 50 13 -2 20 -17
27 -56 5 -28 14 -52 20 -52 6 0 5 -4 -3 -9 -10 -7 -5 -13 22 -26 51 -24 59
-37 63 -107 2 -35 17 -106 34 -158 16 -52 32 -112 35 -132 5 -29 11 -38 25
-38 11 0 20 5 20 10 0 16 37 11 44 -6 10 -25 7 -54 -5 -54 -8 0 -7 -5 2 -16 7
-9 12 -31 11 -50 -2 -24 2 -36 14 -41 15 -6 15 -7 -2 -20 -16 -12 -13 -13 28
-13 58 0 70 14 58 65 -12 53 -12 55 4 55 13 0 29 -66 31 -120 0 -10 10 -15 29
-15 26 0 30 4 42 53 10 38 11 59 4 73 -8 15 -7 19 4 19 9 0 12 7 9 19 -7 27
43 42 96 29 23 -6 41 -14 41 -18 0 -26 -16 -40 -54 -45 -49 -8 -74 -20 -63
-32 4 -4 16 -2 25 4 27 16 99 26 106 14 4 -6 1 -34 -7 -64 l-14 -53 33 -11
c42 -13 71 5 76 45 2 21 9 28 30 30 34 4 34 9 6 39 -20 22 -16 29 15 24 4 -1
17 3 28 9 10 6 35 8 54 4 30 -5 35 -10 35 -34 0 -15 6 -48 14 -73 8 -26 12
-47 10 -47 -2 0 3 -19 11 -41 8 -23 15 -56 15 -73 0 -18 5 -37 11 -43 8 -8 5
-14 -10 -22 -27 -15 -27 -28 2 -35 12 -2 -12 -3 -53 -1 -56 3 -65 1 -35 -4 50
-10 42 -12 -70 -16 -49 -2 -124 -8 -165 -13 -55 -7 -7 -9 185 -6 381 6 420 6
530 -2 64 -4 115 -2 143 5 41 11 42 13 42 53 0 23 6 49 14 57 8 9 19 54 25
101 6 47 16 114 22 148 11 59 13 64 35 59 13 -2 21 -1 19 4 -3 4 7 10 22 12
18 3 13 4 -12 4 -29 -2 -40 2 -40 13 0 12 16 16 74 18 41 2 78 -1 84 -7 17
-17 -15 -37 -63 -40 -60 -4 -65 -11 -8 -11 57 0 108 17 108 37 0 10 6 12 21 8
20 -7 21 -4 15 21 -6 26 -5 27 7 11 13 -15 34 -17 203 -15 117 1 170 4 139 8
-43 6 -39 7 35 7 58 1 75 -2 55 -7 -20 -5 1 -8 68 -9 58 -1 96 3 92 8 -11 20
49 24 370 27 181 1 334 3 338 3 4 1 7 51 6 111 l-2 110 -43 0 c-23 0 -51 3
-61 6 -15 5 -15 4 -3 -5 12 -9 12 -11 -2 -16 -9 -4 -20 -21 -24 -38 -3 -16
-14 -44 -24 -60 l-18 -29 -6 53 c-3 30 -8 167 -12 304 -3 138 -7 286 -9 330
-2 44 -7 146 -11 228 l-7 147 84 1 c99 1 81 17 -19 18 -41 1 -61 5 -57 11 4 6
15 8 26 5 14 -5 17 -3 13 10 -5 11 0 18 15 22 11 3 21 11 21 19 0 7 9 18 20
24 11 6 20 17 20 25 0 7 18 22 39 32 35 16 39 23 45 63 10 82 8 85 -65 83 -88
-3 -109 -6 -109 -18 0 -5 -5 -2 -11 8 -16 27 -19 71 -5 79 8 6 8 8 -1 8 -7 0
-13 7 -13 15 0 12 13 15 63 15 58 -1 60 -2 37 -15 -30 -16 -68 -75 -48 -75 7
0 35 21 61 45 36 34 56 45 80 45 24 0 28 3 17 10 -10 6 -11 12 -5 18 6 5 41
37 80 71 l69 61 73 0 c52 0 73 -4 73 -12 -1 -7 -36 -41 -80 -75 -70 -56 -84
-63 -127 -65 l-48 -1 45 -4 c32 -3 40 -7 30 -14 -11 -7 -4 -8 20 -3 19 3 68 8
108 11 58 4 75 9 83 24 10 20 126 109 141 109 4 0 9 -105 10 -232 l3 -233 30
-6 30 -7 -32 -1 c-26 -1 -30 -4 -26 -21 5 -17 0 -20 -31 -20 -33 0 -36 2 -36
30 l0 30 -119 0 c-116 0 -151 -9 -114 -29 19 -10 49 -8 115 4 24 5 43 3 52 -4
10 -9 16 -8 26 4 18 22 30 18 30 -10 l0 -25 -137 -2 c-76 0 -172 0 -213 0 -54
1 -69 -1 -53 -7 11 -6 61 -10 110 -10 48 0 151 -4 228 -8 l140 -8 3 -485 c1
-267 0 -490 -2 -497 -4 -8 -14 -9 -36 -3 -17 5 -28 5 -25 0 3 -4 -2 -23 -10
-41 l-14 -34 -1 40 c0 50 -16 30 -26 -34 -4 -26 -10 -38 -14 -31 -10 16 -31 4
-24 -14 3 -8 1 -17 -5 -21 -6 -3 -11 1 -11 9 0 21 -16 21 -24 0 -4 -10 -2 -13
7 -8 9 5 9 4 0 -7 -15 -15 -17 -49 -3 -49 5 0 7 6 5 13 -4 9 14 11 72 10 43
-1 86 -2 96 -3 13 0 17 -8 17 -35 0 -28 4 -35 19 -35 37 0 51 12 51 41 0 16 5
29 10 29 6 0 10 -18 10 -40 0 -39 1 -40 35 -40 34 0 35 2 36 38 1 20 4 51 8
67 6 29 8 30 66 31 33 1 155 7 270 13 252 13 255 13 255 3 0 -15 -77 -35 -109
-29 -18 4 -31 2 -31 -3 0 -10 42 -15 88 -11 26 2 28 -7 6 -24 -14 -10 -12 -12
15 -12 19 0 31 5 31 14 0 7 -4 13 -10 13 -5 0 -10 5 -10 11 0 6 7 8 16 5 8 -3
12 -2 9 4 -3 6 -1 10 4 10 6 0 11 -7 11 -15 0 -11 7 -14 25 -9 15 4 25 2 25
-5 0 -6 -9 -11 -20 -11 -11 0 -20 -5 -20 -11 0 -7 9 -9 23 -5 12 3 30 6 39 6
11 0 15 5 12 14 -3 7 3 16 13 20 9 4 14 4 10 0 -15 -15 25 -44 52 -38 21 5 23
3 11 -6 -12 -9 -10 -11 11 -6 36 8 39 -2 39 -150 0 -89 -3 -123 -11 -118 -8 5
-8 1 0 -13 7 -14 7 -23 -1 -31 -9 -9 0 -12 35 -12 26 0 47 5 47 10 0 6 7 10
15 10 17 0 20 25 5 35 -6 3 -7 -1 -4 -9 3 -9 2 -16 -4 -16 -13 0 -18 53 -17
177 0 62 4 106 11 113 8 8 23 9 50 2 22 -6 62 -13 90 -17 l51 -6 2 153 2 153
-100 -3 -100 -3 -7 -49 c-13 -102 -23 -32 -25 188 -1 125 -3 255 -3 289 -1 47
-4 59 -13 51 -9 -7 -12 1 -11 36 0 26 -2 49 -4 52 -3 2 -24 2 -47 -2 l-42 -7
3 -46 c3 -43 5 -46 30 -46 25 1 28 -3 33 -50 13 -99 12 -100 -87 -103 l-87 -3
-6 43 c-3 24 -5 234 -3 468 l3 425 30 15 30 15 -33 3 c-29 3 -33 6 -30 30 3
29 34 48 136 83 53 18 74 17 25 -2 -27 -10 -27 -11 -9 -25 25 -18 37 -18 30 1
-4 10 0 15 11 15 9 0 36 11 60 24 24 14 45 22 48 20 8 -8 87 37 102 60 9 11
18 20 20 19 11 -6 28 -3 22 4 -4 3 1 12 11 20 13 11 14 16 4 20 -7 3 -18 16
-23 30 -8 21 -14 24 -35 19 -15 -4 -41 1 -67 12 -80 35 -257 83 -437 118 -88
17 -100 17 -45 0 38 -12 39 -13 13 -18 -16 -3 -25 -1 -22 4 4 6 -6 8 -22 7
-16 -2 -34 0 -41 4 -7 5 -10 0 -6 -15 3 -14 1 -18 -4 -12 -4 6 -36 11 -73 11
-36 -1 -125 7 -198 16 -74 9 -138 17 -143 17 -5 0 -9 -13 -9 -30 0 -16 -4 -30
-9 -30 -6 0 -10 126 -10 306 -1 169 -3 310 -6 314 -2 4 -5 186 -5 404 -1 392
-1 396 -22 416 -12 11 -26 20 -31 20 -6 0 -7 -147 -3 -377z m780 -1163 c38
-14 34 -40 -6 -41 l-33 -1 33 -11 c18 -7 37 -18 41 -26 5 -8 18 -11 32 -7 17
4 15 2 -6 -8 -16 -8 -31 -10 -33 -5 -2 5 -28 9 -58 9 -30 0 -54 3 -54 8 0 4
-30 7 -67 8 -75 1 -325 21 -361 28 -13 3 -59 6 -103 7 -43 2 -79 3 -79 4 0 1
10 10 22 21 12 10 18 13 14 7 -5 -10 3 -13 31 -14 42 0 123 -5 258 -14 50 -3
131 -7 181 -10 51 -2 103 -7 118 -11 24 -6 26 -4 26 30 0 39 5 41 44 26z
m-1224 -121 c0 -4 -37 -36 -81 -73 l-82 -66 -73 0 -74 0 0 69 c0 40 5 71 11
73 19 6 299 3 299 -3z m-2098 -76 l2 -68 6 70 c4 39 7 60 8 48 2 -24 27 -31
35 -10 3 6 6 -16 6 -50 l1 -63 -32 -1 c-18 -1 -55 -3 -83 -5 -27 -1 -63 -3
-79 -3 -16 -1 -27 -4 -23 -7 3 -4 39 -6 80 -5 53 1 74 -2 74 -11 1 -7 3 -28 6
-45 2 -18 2 -33 -2 -34 -3 0 -15 -2 -25 -4 -11 -2 -27 4 -35 14 -9 9 -38 29
-66 45 -51 28 -46 22 29 -38 15 -12 22 -23 15 -23 -27 -2 -94 -21 -75 -22 12
-1 16 -6 12 -17 -3 -8 2 -26 11 -40 9 -14 18 -39 20 -56 3 -27 0 -30 -18 -25
-19 5 -19 4 -6 -11 27 -32 28 -52 4 -63 -12 -5 -121 -13 -241 -17 -143 -4
-221 -11 -223 -18 -4 -13 -4 -13 197 -15 138 -1 154 -2 95 -9 -38 -4 -137 -10
-220 -13 -130 -4 -147 -3 -130 9 10 8 15 14 11 14 -5 0 -3 7 4 15 10 12 9 15
-5 15 -15 0 -16 10 -10 102 4 57 11 106 17 109 5 4 3 9 -6 12 -12 5 -16 20
-16 56 0 47 2 50 28 54 25 4 25 4 -5 6 l-33 1 -2 58 -1 57 -7 -55 -7 -55 -1
62 c-2 56 0 62 16 56 34 -13 125 -86 129 -104 5 -17 22 -24 47 -20 5 1 21 -9
35 -22 26 -24 59 -42 74 -38 4 0 18 3 30 5 12 2 21 9 20 15 -4 15 14 14 20 -1
2 -7 8 -9 13 -5 12 12 -27 39 -46 32 -9 -3 -7 1 4 10 11 8 15 15 10 15 -23 0
-154 112 -154 131 0 17 7 19 61 19 60 0 61 0 137 -67 42 -37 77 -72 77 -77 0
-10 7 -12 36 -7 6 0 -26 31 -70 69 -44 37 -80 72 -80 78 -1 8 49 12 164 13
l165 2 2 -68z m2761 10 c3 -39 5 -44 11 -25 5 12 13 22 20 23 6 0 2 5 -9 10
-14 7 -8 8 25 4 80 -10 150 -29 151 -42 1 -7 2 -21 3 -30 2 -32 -60 -54 -138
-48 -58 5 -67 3 -62 -10 16 -43 -40 -90 -100 -83 -27 3 -29 6 -32 53 -1 28 -5
83 -7 123 l-5 72 69 0 70 0 4 -47z m-3753 -8 c0 -8 -17 -19 -42 -25 -61 -16
-69 -21 -23 -14 94 13 100 12 101 -22 1 -17 4 -36 7 -41 12 -19 -154 -32 -183
-13 -12 7 -12 12 0 34 7 14 17 26 22 26 4 0 -1 9 -12 20 -35 35 -16 50 61 50
54 0 69 -3 69 -15z m3930 -293 c0 -5 -10 -19 -21 -31 l-22 -23 24 7 c13 4 26
12 27 16 12 30 18 -4 18 -88 l-1 -97 -30 -8 c-16 -4 -37 -6 -45 -4 -8 2 -28 7
-44 11 l-29 6 23 21 c22 21 22 22 4 28 -11 4 -20 3 -22 -4 -18 -60 -52 -76
-52 -23 0 32 0 32 -47 30 -27 -1 -58 0 -71 3 -21 4 -22 8 -16 62 3 31 8 60 10
64 3 5 30 8 60 8 42 0 54 -3 54 -15 0 -11 7 -14 24 -9 30 7 42 -11 22 -32 -9
-8 -16 -17 -16 -19 0 -3 28 -1 63 4 4 0 7 8 7 16 0 8 8 15 18 16 13 0 14 2 2
6 -16 6 -30 23 -30 36 0 4 15 7 34 7 19 0 38 5 41 10 7 12 15 13 15 2z m-2940
-260 c0 -24 4 -27 33 -27 l32 0 3 -112 3 -113 -30 0 c-16 0 -31 6 -34 13 -2 6
-6 -89 -9 -212 l-6 -224 39 -65 c38 -62 39 -65 20 -78 -16 -11 -17 -20 -11
-56 9 -46 6 -146 -4 -156 -10 -9 -34 30 -29 49 3 9 0 20 -6 23 -10 7 -14 -16
-14 -77 0 -13 -4 -16 -16 -10 -19 9 -90 8 -178 -2 l-61 -7 3 101 c3 111 -8
136 -19 41 -4 -33 -12 -60 -18 -60 -6 0 -8 -13 -4 -35 5 -27 2 -39 -13 -54
-11 -11 -22 -17 -24 -13 -6 10 4 72 12 72 3 0 7 13 8 28 1 16 3 35 5 42 2 7
-3 15 -11 18 -8 3 -11 0 -7 -7 4 -7 1 -9 -8 -5 -11 4 -15 -1 -13 -22 2 -27 1
-28 -44 -25 l-46 2 -7 -40 c-4 -30 -11 -41 -24 -41 -24 0 -35 10 -49 43 -7 15
-17 27 -23 27 -5 0 -10 9 -10 19 0 11 -12 29 -26 40 -25 20 -28 20 -39 4 -9
-12 -10 -22 -2 -34 5 -9 7 -24 3 -34 -11 -29 -26 -4 -36 56 -13 80 -21 109
-31 109 -12 0 -12 -37 0 -44 15 -10 22 -69 9 -78 -25 -15 -48 -8 -63 22 -9 17
-13 30 -10 30 3 0 -1 13 -10 30 -23 44 -18 73 18 107 29 29 34 30 51 17 11 -8
24 -14 29 -14 5 0 7 155 4 380 -3 209 -2 382 3 385 4 3 149 8 322 11 172 4
315 8 317 10 10 9 21 -10 21 -34z m458 -23 c2 -4 9 -6 16 -3 9 3 13 -24 15
-106 l2 -111 -48 3 -48 3 -2 97 c-2 126 2 140 36 131 14 -3 27 -10 29 -14z
m-1764 -248 c4 -112 9 -208 12 -213 3 -4 10 -6 15 -3 5 4 9 1 9 -5 0 -7 -8 -9
-19 -5 -13 4 -21 -1 -26 -17 -4 -13 -7 -26 -6 -30 1 -5 -17 -8 -39 -8 -25 0
-40 5 -41 13 0 6 -2 106 -3 222 -2 153 0 213 9 222 10 9 76 33 81 29 1 -1 4
-93 8 -205z m1766 -316 c0 -40 6 -78 16 -96 21 -41 22 -201 2 -249 -10 -23
-13 -56 -10 -97 5 -72 16 -66 -120 -67 l-77 -1 -4 30 c-4 28 -4 29 -12 8 -8
-26 -22 -28 -60 -11 -19 9 -25 17 -22 32 3 12 8 37 11 56 l6 35 -15 -30 c-8
-16 -14 -38 -15 -47 0 -9 -4 -20 -10 -23 -13 -8 -13 -11 10 80 11 43 17 87 14
98 -9 27 35 156 57 168 23 12 24 6 3 -27 -9 -13 -14 -27 -11 -30 8 -8 47 57
47 79 0 9 7 17 16 17 12 0 14 -3 6 -13 -19 -23 7 -85 29 -71 4 2 3 18 -2 36
-4 17 -6 42 -3 55 l6 23 19 -21 c11 -12 19 -31 19 -43 0 -19 1 -19 17 -3 16
15 15 19 -21 54 -29 29 -36 43 -31 61 5 21 3 23 -17 17 -22 -6 -22 -6 -3 10
10 8 29 14 41 12 25 -3 78 -62 69 -77 -3 -5 -2 -10 3 -10 19 0 20 27 1 39 -11
6 -17 16 -13 22 4 7 11 6 20 -2 11 -9 13 -6 10 20 -2 21 1 31 10 31 11 0 14
-17 14 -65z m-365 -615 c12 20 35 10 35 -15 0 -29 -23 -43 -44 -26 -20 17 -43
-37 -56 -134 -4 -33 -11 -72 -15 -87 -6 -24 -4 -27 32 -37 21 -6 71 -11 111
-11 39 0 72 -4 72 -9 0 -5 -12 -19 -26 -30 -24 -19 -40 -21 -152 -21 -103 0
-123 2 -113 13 6 8 8 17 4 21 -6 5 -5 127 2 266 3 67 4 70 18 65 6 -2 28 -1
47 4 19 4 45 4 57 0 13 -5 25 -4 28 1z"/>
<path d="M4710 3965 c0 -3 15 -13 33 -21 l32 -15 -32 5 c-28 5 -33 2 -33 -14
0 -17 -6 -19 -55 -16 -30 2 -55 -1 -55 -5 0 -5 -6 -8 -12 -6 -7 1 -14 -5 -14
-13 -3 -32 -5 -34 -14 -20 -6 10 -10 11 -10 3 0 -7 -6 -13 -14 -13 -8 0 -17 6
-19 13 -3 7 -6 5 -6 -5 -1 -15 -11 -18 -53 -19 -37 0 -47 -3 -33 -8 17 -7 14
-9 -15 -13 -19 -3 -44 -2 -55 3 -11 4 -41 13 -67 19 -31 8 -48 18 -48 28 0 8
-3 13 -6 10 -5 -6 -6 -52 -5 -224 l1 -92 48 -6 c82 -12 82 -12 83 -69 1 -42 3
-46 8 -22 3 17 10 29 14 28 4 -1 21 -4 37 -8 28 -6 29 -8 15 -28 -8 -12 -15
-32 -15 -45 0 -13 -4 -20 -10 -17 -5 3 -10 2 -10 -4 0 -5 6 -12 13 -14 7 -3 5
-6 -5 -6 -10 -1 -18 -5 -18 -10 0 -11 36 -21 81 -21 30 0 38 5 52 33 16 30 16
30 11 5 -5 -24 -3 -28 15 -28 12 0 21 -6 21 -15 0 -8 10 -17 23 -20 12 -2 71
-16 130 -31 60 -14 115 -23 123 -20 9 3 12 1 9 -4 -3 -6 1 -10 9 -10 13 0 16
13 16 64 0 48 4 65 15 70 8 3 15 0 15 -7 1 -7 9 -2 19 11 11 12 25 22 33 22 7
0 22 7 32 15 11 8 27 15 36 15 9 0 26 8 38 18 52 44 63 52 67 52 7 0 197 129
213 145 12 10 10 16 -10 35 -48 46 -166 123 -260 171 -104 52 -113 56 -102 38
4 -7 1 -10 -7 -7 -8 3 -13 10 -12 16 2 10 -23 22 -105 48 -23 7 -40 10 -38 5
3 -5 19 -11 36 -15 21 -4 29 -10 24 -18 -6 -9 -9 -9 -12 0 -2 7 -16 12 -32 12
-15 0 -47 7 -70 15 -48 17 -50 17 -50 10z"/>
<path d="M4997 1843 c-14 -4 -9 -12 28 -47 37 -35 45 -49 45 -78 0 -32 3 -36
25 -34 20 1 25 6 25 29 0 15 7 30 15 33 19 8 19 24 0 24 -11 0 -8 8 12 30 14
17 31 30 36 30 6 0 0 -11 -13 -25 -13 -14 -20 -28 -16 -32 7 -7 66 52 66 68 0
9 -188 11 -223 2z"/>
<path d="M150 750 c12 -8 9 -10 -14 -10 -24 0 -26 -2 -16 -14 6 -8 27 -16 47
-18 32 -3 37 -7 50 -47 18 -55 12 -60 -77 -63 l-65 -2 83 -5 c85 -6 120 -26
45 -26 -24 0 -43 -4 -43 -8 0 -5 21 -7 47 -6 41 3 47 1 56 -21 28 -73 33 -126
22 -245 l-10 -120 -40 -3 c-22 -2 -44 -8 -50 -13 -6 -6 3 -8 27 -5 32 4 37 1
43 -21 3 -14 3 -28 0 -32 -4 -3 -62 -6 -130 -6 -68 0 -121 -3 -117 -6 11 -10
305 -18 327 -9 16 7 14 9 -15 10 -19 1 -30 4 -24 6 7 3 10 14 7 24 -3 11 0 20
6 20 5 0 8 7 5 15 -4 9 0 15 8 15 16 0 17 4 22 145 2 74 0 112 -8 117 -7 5 -4
8 8 8 12 0 16 5 12 15 -4 11 1 15 17 15 17 0 19 2 8 9 -11 7 -12 17 -4 50 6
23 8 43 3 46 -10 6 -10 65 1 65 16 0 10 18 -8 23 -15 4 -14 5 2 6 16 1 21 8
20 31 0 17 -5 30 -12 30 -7 0 -13 5 -13 10 0 6 12 10 27 10 14 0 24 3 21 6 -3
3 -68 7 -145 10 -94 3 -133 1 -123 -6z"/>
<path d="M4776 291 c10 -11 209 -39 354 -51 113 -10 103 -8 95 -20 -4 -6 7
-13 25 -16 17 -4 33 -11 36 -15 3 -5 21 -9 40 -9 30 0 34 3 34 25 0 23 -4 25
-45 25 -25 0 -53 4 -63 9 -43 24 -127 41 -246 51 -162 13 -243 13 -230 1z"/>
<path d="M4740 221 c-25 -7 -22 -12 13 -24 10 -4 16 -3 12 2 -3 5 -1 12 5 16
5 3 10 -1 10 -9 0 -11 10 -16 33 -17 17 -1 43 -3 57 -4 14 -2 64 -6 112 -10
48 -4 85 -12 82 -16 -3 -5 52 -8 123 -8 l127 1 -69 27 c-52 20 -91 28 -149 30
-44 1 -83 4 -86 6 -13 8 -246 13 -270 6z"/>
</g>
</svg>
